<svg width="184" height="31" viewBox="0 0 184 31" fill="none" xmlns="http://www.w3.org/2000/svg">
<path fill-rule="evenodd" clip-rule="evenodd" d="M169.342 0L169.469 0.300766C170.771 3.46351 171.666 8.23505 172.155 14.6153L172.2 15.2182L170.161 17.7555V18.841C170.663 18.841 172.2 19.8932 172.2 21.5147C172.2 23.0658 171.186 23.8366 170.817 23.9007L170.771 23.905V29.2785C170.771 29.689 170.356 29.9231 169.526 29.9806L169.342 29.9902C168.389 29.9556 167.912 29.7183 167.912 29.2785V23.905C167.592 23.905 166.483 23.1363 166.483 21.5147C166.483 19.8932 168.021 18.841 168.522 18.841V17.7555L166.483 15.2182C166.976 8.32602 167.929 3.25321 169.342 0ZM155.65 4.63595L155.858 4.83515C157.799 6.7399 159.907 9.9255 162.181 14.3919L162.425 14.8753L161.611 17.355L161.936 18.1479C162.324 17.9938 163.828 18.2903 164.314 19.4749C164.801 20.6595 164.175 21.5615 163.927 21.66C165.058 24.412 165.689 25.9486 165.821 26.27C165.943 26.5683 165.696 26.8652 165.079 27.1606L164.93 27.2287C164.184 27.496 163.744 27.469 163.612 27.1476L161.719 22.5377C161.471 22.6361 160.384 22.4149 159.897 21.2304C159.411 20.0458 160.283 18.8052 160.671 18.651L160.345 17.858L158.008 16.6307C156.321 11.4445 155.535 7.44621 155.65 4.63595ZM183.033 4.63595C183.148 7.44621 182.362 11.4445 180.675 16.6307L178.338 17.858L178.013 18.651C178.4 18.8052 179.272 20.0458 178.786 21.2304C178.299 22.4149 177.212 22.6361 176.964 22.5377L175.071 27.1476C174.939 27.469 174.5 27.496 173.753 27.2287L173.604 27.1606C172.987 26.8652 172.74 26.5683 172.862 26.27C172.994 25.9486 173.626 24.412 174.756 21.66C174.508 21.5615 173.882 20.6595 174.369 19.4749C174.855 18.2903 176.359 17.9938 176.747 18.1479L177.072 17.355L176.258 14.8753L176.503 14.3919C178.776 9.9255 180.884 6.7399 182.826 4.83515L183.033 4.63595ZM169.342 20.1497C168.552 20.1497 167.912 20.7792 167.912 21.5555C167.912 22.3319 168.552 22.9614 169.342 22.9614C170.131 22.9614 170.771 22.3319 170.771 21.5555C170.771 20.7792 170.131 20.1497 169.342 20.1497ZM161.696 19.3555C161.086 19.5979 160.781 20.2541 161.014 20.8213C161.247 21.3885 161.93 21.6518 162.54 21.4094C163.15 21.167 163.455 20.5108 163.222 19.9436C162.989 19.3764 162.306 19.1131 161.696 19.3555ZM176.987 19.3555C176.377 19.1131 175.694 19.3764 175.461 19.9436C175.228 20.5108 175.533 21.167 176.143 21.4094C176.753 21.6518 177.436 21.3885 177.669 20.8213C177.902 20.2541 177.597 19.5979 176.987 19.3555Z" fill="#F8F8F8"/>
<path fill-rule="evenodd" clip-rule="evenodd" d="M117.515 9.43646C116.936 11.6525 115.489 12.7605 113.173 12.7605H99.2783C99.8573 11.0985 100.726 10.2675 101.884 10.2675H112.305C111.147 9.15948 109.989 8.60545 108.831 8.60545H104.489C105.041 7.54782 106.122 6.99495 107.729 6.94683L108.295 6.93886C110.783 6.86972 113.136 6.0063 112.305 3.61938H116.647L128.993 14.646C129.343 14.9592 129.362 15.4851 129.035 15.8205C129.021 15.8345 129.007 15.848 128.993 15.8611L116.647 26.8877H112.305C113.173 24.3946 110.568 23.5636 107.962 23.5636C106.305 23.5636 105.174 23.0589 104.571 22.0493L104.489 21.9016H108.831C109.921 21.9016 111.01 21.4109 112.1 20.4294L112.305 20.2396H101.884C100.776 20.2396 99.9333 19.4793 99.3555 17.9586L99.2783 17.7466H113.173C115.412 17.7466 116.839 18.7819 117.454 20.8527L117.515 21.0706L123.594 15.2535L117.515 9.43646Z" fill="#F8F8F8"/>
<path fill-rule="evenodd" clip-rule="evenodd" d="M62.3246 21.8944L65.7453 24.6213C65.9481 24.7831 66.0662 25.0279 66.0662 25.2868V29.9903L61.7904 26.5815L57.5146 29.9903V25.2868C57.5146 25.0279 57.6327 24.7831 57.8355 24.6213L61.2562 21.8944C61.5685 21.6454 62.0123 21.6454 62.3246 21.8944ZM62.3625 11.7555L70.0589 18.6581C70.2391 18.8197 70.342 19.0499 70.342 19.2915V24.0251L62.3625 16.8685C62.0373 16.5769 61.5435 16.5769 61.2183 16.8685L53.2388 24.0251V19.2915C53.2388 19.0499 53.3417 18.8197 53.5219 18.6581L61.2183 11.7555C61.5435 11.4638 62.0373 11.4638 62.3625 11.7555ZM62.3951 0.766685L72.4066 10.7432C72.7273 11.0628 72.9075 11.4963 72.9075 11.9483V18.0598L69.4869 15.5033V13.2998C69.4869 13.0737 69.3967 12.8569 69.2364 12.6971L62.3951 5.87973C62.0612 5.54693 61.5196 5.54693 61.1857 5.87973L54.3444 12.6971C54.1841 12.8569 54.0939 13.0737 54.0939 13.2998V15.5033L50.6733 18.0598V11.9483C50.6733 11.4963 50.8535 11.0628 51.1743 10.7432L61.1857 0.766685C61.5196 0.433892 62.0612 0.433892 62.3951 0.766685Z" fill="#F8F8F8"/>
<path fill-rule="evenodd" clip-rule="evenodd" d="M12.6774 0C12.6774 1.29192 12.6923 2.28473 12.0687 3.47258L12.1512 3.47165C18.8621 3.47165 24.3024 8.96305 24.3024 15.7371C24.3024 19.7992 22.3462 23.4 19.3328 25.6322C18.3473 26.5892 16.0891 28.2144 12.5574 30.5073C12.7793 29.541 12.6604 28.7058 12.2006 28.0015L12.1512 28.0026C5.44031 28.0026 0 22.5111 0 15.7371C0 10.991 2.6705 6.87465 6.5775 4.83524C9.74662 2.62161 11.7796 1.00981 12.6774 0ZM12.1512 8.76102C8.31638 8.76102 5.20768 11.899 5.20768 15.7698C5.20768 16.499 5.31796 17.202 5.5226 17.863C7.6013 19.3564 11.6418 18.469 12.0348 14.0177C12.9504 17.5936 12.3112 21.1726 7.90106 21.3125C9.07512 22.2315 10.5499 22.7787 12.1512 22.7787C15.9861 22.7787 19.0948 19.6407 19.0948 15.7698C19.0948 11.899 15.9861 8.76102 12.1512 8.76102Z" fill="#F8F8F8"/>
</svg>
