<svg width="185" height="38" viewBox="0 0 185 38" fill="none" xmlns="http://www.w3.org/2000/svg">
<path fill-rule="evenodd" clip-rule="evenodd" d="M25.2462 0L20.1372 10.0887C21.8016 11.664 22.8391 13.8902 22.8391 16.3579C22.8391 16.8934 22.7902 17.4177 22.6967 17.9263L27.4049 21.7155L21.8018 20.4607C20.5405 22.7872 18.2399 24.4724 15.5197 24.8989L14.1594 37.2293L13.038 24.933C12.2276 24.8289 11.4523 24.6134 10.7279 24.3025L7.58688 26.4109L8.95909 23.2814C6.93442 21.7698 5.59465 19.3974 5.48668 16.7094L0 14.5819L5.8151 13.9695C6.16566 12.7517 6.77767 11.644 7.58666 10.7104L7.58688 8.54434L10.1841 8.66949C10.9063 8.29818 11.6875 8.02488 12.5101 7.8672H12.4235L13.7564 0.794046L15.0698 7.75825C16.0798 7.86315 17.0382 8.14051 17.9149 8.56032L25.2462 0ZM14.1594 12.3228C11.9223 12.3228 10.1089 14.1294 10.1089 16.3579C10.1089 18.5864 11.9223 20.393 14.1594 20.393C16.3964 20.393 18.21 18.5864 18.21 16.3579C18.21 14.1294 16.3964 12.3228 14.1594 12.3228Z" fill="#F8F8F8"/>
<path fill-rule="evenodd" clip-rule="evenodd" d="M59.4418 2.06836C58.2657 6.44099 56.691 14.6924 60.6592 16.3593C63.3048 17.4707 63.8243 14.4291 62.2178 7.23487C64.8538 11.0206 65.9869 14.6722 65.6174 18.1898C66.1073 18.4705 66.5701 18.7951 66.9998 19.1582C67.6323 18.777 67.9485 18.0464 67.9485 16.9678C68.6329 18.223 68.8007 19.4659 68.4519 20.6964C69.6257 22.2617 70.3222 24.2106 70.3222 26.3229C70.3222 31.4896 66.1551 35.6781 61.0148 35.6781C55.8746 35.6781 51.7075 31.4896 51.7075 26.3229C51.7075 24.8338 52.0537 23.4261 52.6695 22.1763C52.0641 20.7664 52.2249 18.8271 53.1522 16.3593C53.1522 18.5812 53.5702 19.1158 54.0637 19.4302C54.2028 19.5186 54.3685 19.5698 54.561 19.5836C54.841 19.3113 55.1373 19.0583 55.4487 18.8244C54.9602 12.3797 56.291 6.79409 59.4418 2.06836ZM61.0148 21.8916C58.5799 21.8916 56.6061 23.8756 56.6061 26.3229C56.6061 28.2287 57.8029 29.8534 59.4824 30.4793C59.6442 28.9465 60.2787 27.8935 61.3861 27.3186C61.3861 28.5469 61.2263 29.797 62.0623 30.6281C63.9925 30.1548 65.4236 28.4068 65.4236 26.3229C65.4236 23.8756 63.4497 21.8916 61.0148 21.8916Z" fill="#F8F8F8"/>
<path fill-rule="evenodd" clip-rule="evenodd" d="M102.091 5.70327C100.805 13.1986 102.279 24.041 111.472 32.0585C107.043 31.8498 103.508 31.2321 100.867 30.2056C102.48 29.1732 103.286 28.6571 103.286 28.6571C93.9658 22.542 94.0485 14.8713 95.1002 12.8875C96.1012 15.034 97.1561 16.3344 98.2647 16.7887C97.9241 12.0126 99.1993 8.31749 102.091 5.70327ZM122.837 5.68774C125.728 8.30196 127.003 11.9971 126.662 16.7732C127.771 16.319 128.826 15.0185 129.827 12.8721C130.879 14.8558 130.961 22.5264 121.641 28.6416C121.641 28.6416 122.447 29.1578 124.06 30.1901C121.419 31.2166 117.884 31.8342 113.455 32.0429C122.648 24.0255 124.122 13.1831 122.837 5.68774ZM118.358 18.6458C118.818 21.1676 116.242 23.9435 112.465 26.1856L112.465 26.1863H112.464C108.687 23.9435 106.11 21.1676 106.57 18.6458C107.03 16.1237 111.193 15.276 112.465 18.6458L112.464 18.6448L112.539 18.4596C113.891 15.3087 117.906 16.1714 118.358 18.6458ZM112.464 10.5684C113.558 10.5684 114.446 11.4424 114.446 12.5206C114.446 13.5988 113.558 14.4728 112.464 14.4728C111.369 14.4728 110.481 13.5988 110.481 12.5206C110.481 11.4424 111.369 10.5684 112.464 10.5684Z" fill="#F8F8F8"/>
<path fill-rule="evenodd" clip-rule="evenodd" d="M174.132 7.7561C179.104 8.54488 181.97 14.6106 182.141 16.6851C182.716 16.0357 182.901 14.9625 182.696 13.466C183.75 14.3567 184.056 14.9411 184.076 17.0631L184.077 17.3052L184.078 29.9902C182.334 29.3487 180.153 28.8227 177.675 28.4553L177.674 14.4008C177.674 12.1166 175.852 9.02069 174.132 7.7561ZM154.606 13.3329C157.637 19.5244 159.753 23.1252 160.955 24.1353L160.955 28.4604C158.5 28.8262 156.338 29.3477 154.605 29.9831L154.606 13.3329ZM169.879 7.95746C169.202 10.311 168.837 12.7277 168.785 15.2075L168.779 15.8288L168.779 27.874C166.439 27.8943 164.205 28.043 162.147 28.2979L162.148 14.2017C162.148 11.9017 161.237 10.31 160.138 9.0769C161.478 9.50549 162.466 10.3181 163.104 11.5148C164.06 13.3099 163.482 18.0123 165.25 18.0123C167.017 18.0123 167.019 15.1 167.22 12.8901C167.354 11.4169 168.24 9.77274 169.879 7.95746ZM171.512 11.5424C171.485 15.0192 171.987 16.7576 173.018 16.7576C174.05 16.7576 174.342 15.1766 173.897 12.0144C175.257 13.6311 175.937 15.0302 175.937 16.2117L175.937 28.2295C174.12 28.0252 172.174 27.9027 170.146 27.8768V15.7659C170.146 13.8977 170.601 12.4898 171.512 11.5424ZM157.026 9.39325C158.928 10.5002 160.016 11.7498 160.29 13.1421L160.322 13.3329L158.268 17.5387C158.491 15.2842 158.077 12.5691 157.026 9.39325Z" fill="#F8F8F8"/>
</svg>
