<svg width="185" height="30" viewBox="0 0 185 30" fill="none" xmlns="http://www.w3.org/2000/svg">
<path fill-rule="evenodd" clip-rule="evenodd" d="M0 12.3489L7.88537 21.1696L9.63767 17.6413L14.8946 29.9902L9.63767 24.6978L7.88537 28.2261L0 12.3489ZM31.5415 12.3489L23.6561 28.2261L21.9038 24.6978L16.6469 29.9902L21.9038 17.6413L23.6561 21.1696L31.5415 12.3489ZM15.7707 0C16.9389 7.05653 18.9833 10.8788 21.9038 11.4669L15.7707 23.8158L9.63767 11.4669C12.5041 10.8897 14.5265 7.19695 15.7049 0.3887L15.7707 0Z" fill="#F8F8F8"/>
<path d="M80.1325 9.30737C83.2815 9.30737 85.8343 11.8457 85.8343 14.977C85.8343 18.1082 83.2815 20.6465 80.1325 20.6465C77.3076 20.6465 74.9625 18.6037 74.5097 15.9227L73.4804 15.9219V16.4754C73.4804 16.726 73.3804 16.9663 73.2022 17.1435L69.4009 20.9233C69.0298 21.2923 68.4281 21.2923 68.057 20.9233L64.2559 17.1435C64.0776 16.9663 63.9775 16.726 63.9775 16.4754V15.9219L61.9979 15.9227C61.5452 18.6037 59.2 20.6465 56.3751 20.6465C53.2261 20.6465 50.6733 18.1082 50.6733 14.977C50.6733 11.8457 53.2261 9.30737 56.3751 9.30737C59.2004 9.30737 61.5458 11.3507 61.9981 14.0322L63.9775 14.032V10.3285C63.9775 9.80661 64.4029 9.38357 64.9278 9.38357C65.1436 9.38357 65.353 9.45654 65.5214 9.59059L68.1354 11.6699C68.4824 11.946 68.9755 11.946 69.3226 11.6699L71.9365 9.59059C72.3463 9.26464 72.9444 9.33065 73.2722 9.73823C73.407 9.90575 73.4804 10.114 73.4804 10.3285V14.032L74.5096 14.0322C74.9619 11.3507 77.3073 9.30737 80.1325 9.30737ZM56.3751 12.1422C54.8006 12.1422 53.5242 13.4114 53.5242 14.977C53.5242 16.5425 54.8006 17.8117 56.3751 17.8117C57.6161 17.8117 58.6719 17.0233 59.0635 15.9228L56.3751 15.9219C55.8503 15.9219 55.4248 15.4988 55.4248 14.977C55.4248 14.4551 55.8503 14.032 56.3751 14.032L59.0638 14.0321C58.6725 12.9311 57.6165 12.1422 56.3751 12.1422ZM80.1325 12.1422C78.8912 12.1422 77.8352 12.9311 77.4438 14.0321L80.1325 14.032C80.6574 14.032 81.0828 14.4551 81.0828 14.977C81.0828 15.4988 80.6574 15.9219 80.1325 15.9219L77.4442 15.9228C77.8358 17.0233 78.8915 17.8117 80.1325 17.8117C81.707 17.8117 82.9834 16.5425 82.9834 14.977C82.9834 13.4114 81.707 12.1422 80.1325 12.1422Z" fill="#F8F8F8"/>
<path fill-rule="evenodd" clip-rule="evenodd" d="M133.405 25.5305V28.9561H107.551V25.5305H133.405ZM119.014 5.06423L117.36 8.06746C113.656 9.34881 110.998 12.8492 110.998 16.9665C110.998 19.6662 112.141 22.1007 113.972 23.8183L110.576 23.8188C109.213 21.8765 108.413 19.5143 108.413 16.9665C108.413 10.8372 113.041 5.78224 119.014 5.06423ZM121.943 5.06432C127.915 5.78275 132.543 10.8376 132.543 16.9665C132.543 19.5143 131.743 21.8765 130.38 23.8188L126.984 23.8185C128.815 22.1009 129.958 19.6663 129.958 16.9665C129.958 12.8498 127.3 9.34984 123.598 8.06806L121.943 5.06432ZM120.478 1.55127C129.045 1.55127 135.99 8.45293 135.99 16.9665C135.99 19.4277 135.41 21.7541 134.378 23.8182L132.422 23.8183C133.595 21.8027 134.267 19.4626 134.267 16.9665C134.267 9.39883 128.093 3.26407 120.478 3.26407C112.863 3.26407 106.689 9.39883 106.689 16.9665C106.689 19.4626 107.361 21.8027 108.534 23.8183L106.578 23.8182C105.546 21.7541 104.966 19.4277 104.966 16.9665C104.966 8.45293 111.911 1.55127 120.478 1.55127ZM120.478 4.97688L125.649 15.2537C123.925 14.6827 122.776 14.6827 122.202 15.2537C121.627 15.8247 121.053 18.1084 120.478 22.1049C119.903 18.1084 119.329 15.8247 118.754 15.2537C118.18 14.6827 117.031 14.6827 115.307 15.2537L120.478 4.97688Z" fill="#F8F8F8"/>
<path fill-rule="evenodd" clip-rule="evenodd" d="M160.611 19.9935C162.813 23.5347 165.289 25.3053 168.041 25.3053V29.4732L167.216 26.5556C164.739 26.1389 161.849 25.3053 159.373 20.7205L160.611 19.9935ZM178.072 19.9935L179.31 20.7205C176.834 25.3053 173.944 26.1389 171.467 26.5556L170.642 29.4732V25.3053C173.394 25.3053 175.87 23.5347 178.072 19.9935ZM169.342 3.61955L172.809 10.5139H171.075L169.342 21.7171L167.608 10.5139H165.874L169.342 3.61955ZM165.874 11.3756L166.741 15.6846H160.673L163.525 16.5117C159.842 17.607 156.869 19.0548 154.605 20.8553C155.929 19.0122 157.436 17.3501 159.124 15.869L155.472 12.2374L156.221 12.6098C158.04 13.5142 159.458 14.219 160.475 14.7244L160.497 14.7354C162.136 13.4628 163.928 12.3429 165.874 11.3756ZM172.809 11.3756C177.432 13.6738 181.189 16.8336 184.078 20.8553C181.814 19.0548 178.841 17.607 175.158 16.5117L178.01 15.6846H171.942L172.809 11.3756ZM166.741 1.03418V6.20491L164.14 10.5139H161.54L164.14 6.20491L166.741 1.03418ZM171.942 1.03418L174.543 6.20491L177.143 10.5139H174.543L171.942 6.20491V1.03418Z" fill="#F8F8F8"/>
</svg>
