<svg width="185" height="28" viewBox="0 0 185 28" fill="none" xmlns="http://www.w3.org/2000/svg">
<path fill-rule="evenodd" clip-rule="evenodd" d="M77.0041 22.1856V5.21909H79.5099L80.6237 6.63294L82.5726 5.21909L84.8001 4.65356V7.48126L82.5726 9.17791L84.8001 11.4402V14.8334H83.6864L80.6237 13.1368L84.8001 17.6612V21.3373L82.0158 22.7511L80.6237 21.3373L79.5099 22.1856H77.0041ZM58.0713 22.4684V5.21917H65.5889V22.4684H63.6399L60.8557 21.0546V22.4684H58.0713ZM67.5379 22.4684V5.21917H70.3222L71.4359 9.178L72.2712 5.21917H75.0554V22.4684H71.4359L70.3222 21.0546L69.4869 22.4684H67.5379ZM48.605 5.50189L52.7814 10.5918L48.605 9.17791V18.2268C49.1618 18.6981 49.9414 19.8669 48.605 20.7717V22.4683H51.9461L53.0598 21.0545L54.1735 22.4683H56.1226V5.50189H48.605Z" fill="#F8F8F8"/>
<path fill-rule="evenodd" clip-rule="evenodd" d="M122.147 1.11402C122.147 1.72927 121.647 2.22803 121.031 2.22803C120.414 2.22803 119.915 1.72927 119.915 1.11402C119.915 0.49876 120.414 0 121.031 0C121.647 0 122.147 0.49876 122.147 1.11402ZM125.271 5.34721C125.271 6.08553 124.671 6.68401 123.932 6.68401C123.192 6.68401 122.593 6.08553 122.593 5.34721C122.593 4.60889 123.192 4.0104 123.932 4.0104C124.671 4.0104 125.271 4.60889 125.271 5.34721ZM118.575 6.23844C119.069 6.23844 119.468 5.83945 119.468 5.34721C119.468 4.85504 119.069 4.45598 118.575 4.45598C118.082 4.45598 117.683 4.85504 117.683 5.34721C117.683 5.83945 118.082 6.23844 118.575 6.23844ZM126.907 9.06617C127.804 10.251 128.336 11.7266 128.336 13.3264C128.336 17.2315 125.165 20.3972 121.253 20.3972C117.342 20.3972 114.171 17.2315 114.171 13.3264C114.171 11.7266 114.703 10.2508 115.6 9.06594L107.64 2.67382C107.343 3.56505 107.774 6.32781 109.202 7.57547C109.869 8.15746 110.48 8.68124 111.018 9.14232C111.633 9.66975 112.153 10.1152 112.55 10.4719V12.0315L108.174 8.68945C108.323 9.8035 108.932 12.3076 110.271 13.4215C111.106 14.1162 111.843 14.6431 112.269 14.9474C112.389 15.0334 112.484 15.1016 112.55 15.1507V16.9332L109.649 14.4823C109.5 15.9677 110.676 18.9182 112.238 20.0524C113.227 20.7707 114.903 22.1786 116.628 23.6271C118.327 25.0541 120.072 26.5203 121.254 27.4049C122.435 26.5203 124.181 25.054 125.879 23.6271C127.604 22.1787 129.28 20.7706 130.27 20.0523C131.832 18.918 133.007 15.9676 132.859 14.4822L129.957 16.9331V15.1506C130.255 14.9278 131.118 14.2594 132.189 13.3683C133.497 12.2801 133.811 9.91636 133.964 8.76902L133.974 8.68937L129.957 12.0314V10.4718C130.354 10.1152 130.874 9.66975 131.489 9.14232L131.49 9.14148C132.028 8.68056 132.639 8.15701 133.305 7.57539C134.733 6.32766 135.165 3.5649 134.867 2.67372L126.907 9.06617ZM121.254 18.7155C124.212 18.7155 126.61 16.3214 126.61 13.3682C126.61 10.415 124.212 8.02097 121.254 8.02097C118.295 8.02097 115.897 10.415 115.897 13.3682C115.897 16.3214 118.295 18.7155 121.254 18.7155Z" fill="#F8F8F8"/>
<path fill-rule="evenodd" clip-rule="evenodd" d="M159.66 13.906L171.151 25.8535L182.643 13.906C185.268 11.1767 185.243 6.86047 182.586 4.16192C179.837 1.37018 175.327 1.37018 172.579 4.16192L171.151 5.61169L169.724 4.16192C166.975 1.37018 162.465 1.37018 159.717 4.16192C157.06 6.86047 157.035 11.1767 159.66 13.906ZM176.84 12.6357C175.256 12.5575 173.913 11.9453 172.811 10.799C171.708 9.6528 171.157 8.28552 171.157 6.69723C171.157 8.28552 170.604 9.6528 169.498 10.799C168.392 11.9453 167.047 12.5575 165.463 12.6357C166.506 12.6827 167.463 12.9781 168.334 13.5218C169.204 14.0656 169.893 14.7854 170.398 15.6813C170.904 16.5771 171.157 17.5493 171.157 18.5977C171.157 17.0016 171.708 15.6285 172.811 14.4783C173.913 13.3282 175.256 12.714 176.84 12.6357Z" fill="#F8F8F8"/>
<path fill-rule="evenodd" clip-rule="evenodd" d="M23.8018 13.9608C23.8018 19.7266 18.9329 24.4008 12.9268 24.4008C6.92074 24.4008 2.05188 19.7266 2.05188 13.9608C2.05188 8.19493 6.92074 3.52083 12.9268 3.52083C18.9329 3.52083 23.8018 8.19493 23.8018 13.9608ZM25.8537 13.9608C25.8537 20.8145 20.0661 26.3705 12.9268 26.3705C5.78756 26.3705 0 20.8145 0 13.9608C0 7.10708 5.78756 1.55103 12.9268 1.55103C20.0661 1.55103 25.8537 7.10708 25.8537 13.9608ZM11.2853 7.85435L9.01653 5.8579C7.39328 6.56015 6.02512 7.70957 5.08247 9.14269L6.15554 11.2031L4.35124 10.5102C3.9271 11.5148 3.69348 12.6132 3.69348 13.7639C3.69348 14.3056 3.74526 14.8358 3.8443 15.3501L6.97632 14.7487L9.84895 10.0212L9.23335 14.7487L5.29519 18.6937C5.7235 19.2873 6.22707 19.8269 6.79255 20.3001L6.77115 20.2641L9.02817 18.4913L7.85513 21.0653C9.25949 21.9298 10.9296 22.431 12.7217 22.431C14.9461 22.431 16.9825 21.6588 18.5561 20.3783L17.2357 18.6883L12.3112 18.0974L16.8253 16.7185L17.0305 14.1578L14.7734 9.23322L18.4668 13.9608V16.5215L20.6845 17.8521C21.3644 16.6343 21.75 15.2423 21.75 13.7639C21.75 11.7874 21.0609 9.96553 19.9007 8.50745L18.0565 10.809L19.0029 7.53818C17.3778 6.02688 15.163 5.09677 12.7217 5.09677C12.6531 5.09677 12.5846 5.09753 12.5164 5.09897V6.86943L13.1319 7.85435L12.106 11.794L11.2853 7.85435Z" fill="#F8F8F8"/>
</svg>
