<svg width="38" height="41" viewBox="0 0 38 41" fill="none" xmlns="http://www.w3.org/2000/svg">
<path d="M9.76172 0.115014C9.76172 0.00647477 9.89907 -0.0414353 9.96714 0.0433594L21.938 14.9548C21.994 15.0246 21.9441 15.1279 21.8543 15.1279H16.1731C16.0179 15.1279 15.8712 15.0577 15.7742 14.9371L9.86636 7.58384C9.79862 7.49954 9.76172 7.3948 9.76172 7.28685V0.115014Z" fill="#DFE4E7"/>
<path d="M28.2383 0.116151C28.2383 0.00655303 28.1003 -0.0418392 28.0319 0.0437659L20.1288 9.9321C20.0725 10.0025 20.1225 10.1068 20.2127 10.107L25.9214 10.1146C26.0777 10.1148 26.2256 10.0438 26.3231 9.92163L28.1333 7.65473C28.2013 7.56962 28.2383 7.46394 28.2383 7.35501V0.116151Z" fill="#DFE4E7"/>
<path d="M0.0195668 10.2136C-0.0267834 10.156 0.0144219 10.0707 0.0885712 10.0707H5.79289C5.95451 10.0707 6.1073 10.144 6.20794 10.2698L12.6521 18.326C12.7268 18.4194 12.7675 18.5352 12.7675 18.6546V22.4627C12.7675 22.5826 12.7264 22.699 12.651 22.7926L6.00447 31.0475H0.0885711C0.0144219 31.0475 -0.0267836 30.9622 0.0195666 30.9046L8.21443 20.724C8.29204 20.6276 8.29204 20.4906 8.21443 20.3942L0.0195668 10.2136Z" fill="#DFE4E7"/>
<path d="M37.9804 10.2575C38.0268 10.1999 37.9856 10.1146 37.9114 10.1146H32.2071C32.0455 10.1146 31.8927 10.1879 31.7921 10.3137L25.3479 18.3698C25.2732 18.4632 25.2325 18.5791 25.2325 18.6984V22.5066C25.2325 22.6265 25.2736 22.7429 25.349 22.8365L31.9955 31.0914H37.9114C37.9856 31.0914 38.0268 31.006 37.9804 30.9485L29.7856 20.7679C29.708 20.6715 29.708 20.5344 29.7856 20.438L37.9804 10.2575Z" fill="#DFE4E7"/>
<path d="M28.0809 40.9669C28.1332 41.0317 28.2383 40.995 28.2383 40.9119V33.7848C28.2383 33.664 28.1967 33.5469 28.1203 33.453L22.1798 26.1422C22.079 26.0183 21.9274 25.9462 21.7673 25.9462H16.2349C16.0734 25.9462 15.9207 26.0194 15.8201 26.1451L9.85002 33.5982V40.9109C9.85002 40.9941 9.95536 41.0308 10.0075 40.9658L18.8152 29.986C18.9212 29.8539 19.1231 29.8536 19.2294 29.9855L28.0809 40.9669Z" fill="#DFE4E7"/>
</svg>
